<svg version="1.1" xmlns="http://www.w3.org/2000/svg" xmlns:xlink="http://www.w3.org/1999/xlink" width="78" height="63.50641" viewBox="0,0,78,63.50641"><g transform="translate(-261,-148.82692)"><g data-paper-data="{&quot;isPaintingLayer&quot;:true}" fill-rule="nonzero" stroke="none" stroke-linecap="butt" stroke-linejoin="miter" stroke-miterlimit="10" stroke-dasharray="" stroke-dashoffset="0" style="mix-blend-mode: normal"><path d="M261,187v-38.17308h78v38.17308z" fill="#ffcbcb" stroke-width="0"/><path d="M293.87603,164.04457c0,4.13101 -5.9165,7.47986 -13.21488,7.47986c-7.29837,0 -13.21488,-3.34885 -13.21488,-7.47986c0,-4.13101 5.9165,-7.47986 13.21488,-7.47986c7.29837,0 13.21488,3.34885 13.21488,7.47986z" fill="#ffbdbd" stroke-width="0"/><path d="M331.90909,173.58784c0,4.27346 -3.75193,7.73779 -8.38017,7.73779c-4.62824,0 -8.38017,-3.46432 -8.38017,-7.73779c0,-4.27346 3.75193,-7.73779 8.38017,-7.73779c4.62824,0 8.38017,3.46432 8.38017,7.73779z" fill="#ffbdbd" stroke-width="0"/><path d="M308.05785,173.32991c0,-2.70653 -2.74179,-4.9006 -6.12397,-4.9006c-3.38217,0 -6.12397,2.19407 -6.12397,4.9006c0,2.70653 2.74179,4.9006 6.12397,4.9006c3.38217,0 6.12397,-2.19407 6.12397,-4.9006z" fill="#ffbdbd" stroke-width="0"/><path d="M333.19835,157.08056c0,3.41877 -8.22538,6.19023 -18.3719,6.19023c-10.14652,0 -18.3719,-2.77146 -18.3719,-6.19023c0,-3.41877 8.22538,-6.19023 18.3719,-6.19023c10.14652,0 18.3719,2.77146 18.3719,6.19023z" fill="#ffbdbd" stroke-width="0"/><path d="M292.58678,153.21167c0,1.28204 -6.63803,2.32134 -14.82645,2.32134c-8.18842,0 -14.82645,-1.0393 -14.82645,-2.32134c0,-1.28204 6.63803,-2.32134 14.82645,-2.32134c8.18842,0 14.82645,1.0393 14.82645,2.32134z" fill="#ffbdbd" stroke-width="0"/><path d="M293.2314,178.74636c0,3.41877 -6.20511,6.19023 -13.8595,6.19023c-7.65439,0 -13.8595,-2.77146 -13.8595,-6.19023c0,-3.41877 6.20511,-6.19023 13.8595,-6.19023c7.65439,0 13.8595,2.77146 13.8595,6.19023z" fill="#ffbdbd" stroke-width="0"/><path d="M314.50413,182.0994c0,1.56694 -3.17471,2.83719 -7.09091,2.83719c-3.9162,0 -7.09091,-1.27025 -7.09091,-2.83719c0,-1.56694 3.17471,-2.83719 7.09091,-2.83719c3.9162,0 7.09091,1.27025 7.09091,2.83719z" fill="#ffbdbd" stroke-width="0"/><path d="M313.21488,166.88176c0,1.13959 -1.01013,2.06341 -2.2562,2.06341c-1.24606,0 -2.2562,-0.92382 -2.2562,-2.06341c0,-1.13959 1.01013,-2.06341 2.2562,-2.06341c1.24606,0 2.2562,0.92382 2.2562,2.06341z" fill="#ffbdbd" stroke-width="0"/><path d="M301.61157,163.78664c0,1.13959 -1.15444,2.06341 -2.57851,2.06341c-1.42407,0 -2.57851,-0.92382 -2.57851,-2.06341c0,-1.13959 1.15444,-2.06341 2.57851,-2.06341c1.42407,0 2.57851,0.92382 2.57851,2.06341z" fill="#ffbdbd" stroke-width="0"/><text transform="translate(277,206.33333) scale(0.5,0.5)" font-size="40" xml:space="preserve" fill="#ffffff" fill-rule="nonzero" stroke="none" stroke-width="1" stroke-linecap="butt" stroke-linejoin="miter" stroke-miterlimit="10" stroke-dasharray="" stroke-dashoffset="0" font-family="Sans Serif" font-weight="normal" text-anchor="start" style="mix-blend-mode: normal"><tspan x="0" dy="0">jam</tspan></text></g></g></svg>